# xmcd CD database file
#
# Track frame offsets:
#	150
#	12479
#	24619
#	36012
#	47492
#	60374
#	70745
#	82948
#	92724
#	104751
#	118338
#	131998
#	145141
#	158860
#	172913
#	185978
#	198238
#	213036
#
# Disc length: 3029 seconds
#
# Revision: 1
# Processed by: cddbd v1.5.2PL0 Copyright (c) Steve Scherf et al.
# Submitted via: CDex 1.70beta2
#
DISCID=fb0bd312
DTITLE=Loretta Lynn - 50th Anniversary Collection - CD 2
DYEAR=2010
DGENRE=Country
TTITLE0=Here I Am Again
TTITLE1=Rated "X"
TTITLE2=Love Is The Foundation
TTITLE3=Louisiana Woman, Mississippi Man <Duet with Conway Twitty>
TTITLE4=Hey Loretta
TTITLE5=They Don't Make 'Em Like My Daddy Anymore
TTITLE6=As Soon As I Hang Up The Phone <Duet with Conway Twitty>
TTITLE7=Trouble In Paradise
TTITLE8=The Pill
TTITLE9=Feelins' <Duet with Conway Twitty>
TTITLE10=When The Tingle Becomes A Chill
TTITLE11=The Letter <Duet with Conway Twitty>
TTITLE12=Somebody Somewhere (Don't Know What He's Missin' Tonight)
TTITLE13=She's Got You
TTITLE14=I Can't Love You Enough <Duet with Conway Twitty>
TTITLE15=Out Of My Head And Back In My Bed
TTITLE16=I Can't Feel You Anymore
TTITLE17=I Still Believe In Waltzes <Duet with Conway Twitty>
EXTD=YEAR: 2010
EXTT0=
EXTT1=
EXTT2=
EXTT3=
EXTT4=
EXTT5=
EXTT6=
EXTT7=
EXTT8=
EXTT9=
EXTT10=
EXTT11=
EXTT12=
EXTT13=
EXTT14=
EXTT15=
EXTT16=
EXTT17=
PLAYORDER=
